<svg width="328" height="72" viewBox="0 0 328 72" fill="none" xmlns="http://www.w3.org/2000/svg">
<rect width="328" height="72" rx="8" fill="url(#paint0_linear_3401_127323)"/>
<mask id="mask0_3401_127323" style="mask-type:alpha" maskUnits="userSpaceOnUse" x="0" y="0" width="328" height="72">
<rect width="328" height="72" rx="8" fill="white"/>
</mask>
<g mask="url(#mask0_3401_127323)">
<circle cx="289" cy="-8" r="40" stroke="black" stroke-opacity="0.3" stroke-width="24" style="mix-blend-mode:overlay"/>
<circle cx="185.5" cy="82.5" r="26.5" fill="black" fill-opacity="0.5" style="mix-blend-mode:overlay"/>
<circle cx="13" cy="69" r="40" stroke="black" stroke-opacity="0.4" stroke-width="32" style="mix-blend-mode:overlay"/>
<path fill-rule="evenodd" clip-rule="evenodd" d="M23.0491 51.5595H34.0953H40.7328C41.5451 51.5595 42.3365 51.2938 42.9864 50.801L48.1765 46.8683C48.9901 46.2526 49.1624 45.0906 48.5617 44.2614V44.2614C48.0288 43.5252 47.0479 43.2832 46.2368 43.6866L40.9531 46.5095C40.675 46.6572 40.3661 46.7367 40.051 46.7392L34.9839 46.7851C34.9839 46.7851 34.0953 46.7355 34.0953 45.9149C34.0953 45.0931 34.9568 45.1937 34.9568 45.1937H37.251C38.1224 45.1937 38.8288 44.4811 38.8288 43.6022V43.6022C38.8288 42.7221 38.1224 42.0095 37.251 42.0095H30.9384H23.0491V51.5595Z" fill="url(#paint1_linear_3401_127323)"/>
<path fill-rule="evenodd" clip-rule="evenodd" d="M50.4122 31.6937C50.4122 32.4957 49.7673 33.1462 48.9722 33.1462C48.1771 33.1462 47.5322 32.4957 47.5322 31.6937C47.5322 30.8918 48.1771 30.2413 48.9722 30.2413C49.7673 30.2413 50.4122 30.8918 50.4122 31.6937Z" stroke="#8192EE"/>
<path fill-rule="evenodd" clip-rule="evenodd" d="M43.6581 40.026H30.2661C29.2815 40.026 28.4839 39.2216 28.4839 38.2298V29.8517C28.4839 28.8598 29.2815 28.0554 30.2661 28.0554H43.6581C44.6415 28.0554 45.439 28.8598 45.439 29.8517V38.2298C45.439 39.2216 44.6415 40.026 43.6581 40.026" fill="#8184E7" fill-opacity="0.06"/>
<path fill-rule="evenodd" clip-rule="evenodd" d="M45.1245 39.209H28.7996C27.6869 39.209 26.7848 38.299 26.7848 37.1768V26.8697C26.7848 25.7475 27.6869 24.8375 28.7996 24.8375H45.1245C46.2371 24.8375 47.1393 25.7475 47.1393 26.8697V37.1768C47.1393 38.299 46.2371 39.209 45.1245 39.209" fill="#7789E0" fill-opacity="0.2"/>
<path fill-rule="evenodd" clip-rule="evenodd" d="M46.5792 37.6936H26.8869C25.5269 37.6936 24.4254 36.5826 24.4254 35.2109V22.7971C24.4254 21.4254 25.5269 20.3143 26.8869 20.3143H46.5792C47.9392 20.3143 49.0407 21.4254 49.0407 22.7971V35.2109C49.0407 36.5826 47.9392 37.6936 46.5792 37.6936" fill="url(#paint2_linear_3401_127323)"/>
<path fill-rule="evenodd" clip-rule="evenodd" d="M21.8803 52.849H25.8397C26.8538 52.849 27.6772 52.0185 27.6772 50.9944V42.2898C27.6772 41.2657 26.8538 40.4352 25.8397 40.4352H21.8803C20.8649 40.4352 20.0415 41.2657 20.0415 42.2898V50.9944C20.0415 52.0185 20.8649 52.849 21.8803 52.849" fill="url(#paint3_linear_3401_127323)"/>
<path fill-rule="evenodd" clip-rule="evenodd" d="M36.7153 33.2977C39.1227 33.2977 41.0747 31.3289 41.0747 28.9007C41.0747 26.4726 39.1227 24.5038 36.7153 24.5038C34.3079 24.5038 32.3572 26.4726 32.3572 28.9007C32.3572 31.3289 34.3079 33.2977 36.7153 33.2977ZM35.3568 27.7805V30.051C35.3568 30.4942 35.822 30.7809 36.2134 30.5786L38.4633 29.4167C38.8953 29.1932 38.8891 28.5688 38.4534 28.3553L36.2023 27.248C35.8122 27.0556 35.3568 27.3423 35.3568 27.7805Z" fill="white"/>
<path fill-rule="evenodd" clip-rule="evenodd" d="M20.2543 34.9008C20.2543 34.9008 21.0236 33.7625 22.7159 34.4353Z" fill="white"/>
<path d="M20.2543 34.9008C20.2543 34.9008 21.0236 33.7625 22.7159 34.4353" stroke="#8192EE" stroke-linecap="round" stroke-linejoin="round"/>
<path fill-rule="evenodd" clip-rule="evenodd" d="M48.8282 41.5505C48.8282 41.5505 49.0694 40.1949 50.886 40.1105Z" fill="white"/>
<path d="M48.8282 41.5505C48.8282 41.5505 49.0694 40.1949 50.886 40.1105" stroke="#8192EE" stroke-linecap="round" stroke-linejoin="round"/>
<g filter="url(#filter0_d_3401_127323)">
<circle cx="292" cy="36" r="20" fill="white"/>
</g>
<g clip-path="url(#clip0_3401_127323)">
<path fill-rule="evenodd" clip-rule="evenodd" d="M284.945 37.7596C285.149 38.2731 285.73 38.5247 286.243 38.3215C286.757 38.1183 287.008 37.5372 286.805 37.0237C285.912 34.7679 286.829 32.0574 289.121 30.7341C291.108 29.5867 293.476 29.8555 295.055 31.1848L292.565 31.4789C292.016 31.5437 291.624 32.0408 291.689 32.5893C291.754 33.1378 292.251 33.5299 292.799 33.4651L297.109 32.9561C297.538 32.9055 297.886 32.5858 297.972 32.1631L298.774 28.236C298.884 27.6949 298.535 27.1666 297.994 27.0561C297.453 26.9456 296.925 27.2947 296.814 27.8358L296.429 29.7246C294.203 27.7861 290.856 27.4228 288.121 29.002C285.001 30.8033 283.675 34.5492 284.945 37.7596ZM299.055 34.2404C298.851 33.7268 298.27 33.4753 297.757 33.6785C297.243 33.8817 296.992 34.4627 297.195 34.9763C298.087 37.232 297.171 39.9426 294.879 41.2659C292.892 42.4133 290.524 42.1445 288.945 40.8152L291.435 40.521C291.984 40.4563 292.376 39.9591 292.311 39.4107C292.246 38.8622 291.749 38.4701 291.201 38.5348L286.891 39.0438C286.462 39.0944 286.114 39.4141 286.028 39.8368L285.226 43.764C285.115 44.3051 285.465 44.8334 286.006 44.9439C286.547 45.0544 287.075 44.7053 287.186 44.1642L287.571 42.2754C289.797 44.2139 293.144 44.5772 295.879 42.9979C298.999 41.1966 300.325 37.4508 299.055 34.2404Z" fill="#333333"/>
</g>
</g>
<path d="M68.9395 22.0469V32H66.8887V22.0469H68.9395ZM74.9004 22.0469L70.9561 26.9619L68.6797 29.4092L68.3105 27.4678L69.8486 25.3623L72.3848 22.0469H74.9004ZM72.5693 32L69.6367 27.3994L71.1543 26.1279L74.9961 32H72.5693ZM75.1602 28.377V28.2334C75.1602 27.6911 75.2376 27.1921 75.3926 26.7363C75.5475 26.276 75.7731 25.8773 76.0693 25.54C76.3656 25.2028 76.7301 24.9408 77.1631 24.7539C77.596 24.5625 78.0928 24.4668 78.6533 24.4668C79.2139 24.4668 79.7129 24.5625 80.1504 24.7539C80.5879 24.9408 80.9548 25.2028 81.251 25.54C81.5518 25.8773 81.7796 26.276 81.9346 26.7363C82.0895 27.1921 82.167 27.6911 82.167 28.2334V28.377C82.167 28.9147 82.0895 29.4137 81.9346 29.874C81.7796 30.3298 81.5518 30.7285 81.251 31.0703C80.9548 31.4076 80.5902 31.6696 80.1572 31.8564C79.7243 32.0433 79.2275 32.1367 78.667 32.1367C78.1064 32.1367 77.6074 32.0433 77.1699 31.8564C76.737 31.6696 76.3701 31.4076 76.0693 31.0703C75.7731 30.7285 75.5475 30.3298 75.3926 29.874C75.2376 29.4137 75.1602 28.9147 75.1602 28.377ZM77.1289 28.2334V28.377C77.1289 28.6868 77.1562 28.9762 77.2109 29.2451C77.2656 29.514 77.3522 29.751 77.4707 29.9561C77.5938 30.1566 77.7533 30.3138 77.9492 30.4277C78.1452 30.5417 78.3844 30.5986 78.667 30.5986C78.9404 30.5986 79.1751 30.5417 79.3711 30.4277C79.5671 30.3138 79.7243 30.1566 79.8428 29.9561C79.9613 29.751 80.0479 29.514 80.1025 29.2451C80.1618 28.9762 80.1914 28.6868 80.1914 28.377V28.2334C80.1914 27.9326 80.1618 27.6501 80.1025 27.3857C80.0479 27.1169 79.959 26.8799 79.8359 26.6748C79.7174 26.4652 79.5602 26.3011 79.3643 26.1826C79.1683 26.0641 78.9313 26.0049 78.6533 26.0049C78.3753 26.0049 78.1383 26.0641 77.9424 26.1826C77.751 26.3011 77.5938 26.4652 77.4707 26.6748C77.3522 26.8799 77.2656 27.1169 77.2109 27.3857C77.1562 27.6501 77.1289 27.9326 77.1289 28.2334ZM85.3047 26.1826V32H83.3359V24.6035H85.1816L85.3047 26.1826ZM85.0176 28.042H84.4844C84.4844 27.4951 84.555 27.0029 84.6963 26.5654C84.8376 26.1234 85.0358 25.7474 85.291 25.4375C85.5462 25.123 85.8493 24.8838 86.2002 24.7197C86.5557 24.5511 86.9521 24.4668 87.3896 24.4668C87.736 24.4668 88.0527 24.5169 88.3398 24.6172C88.627 24.7174 88.873 24.877 89.0781 25.0957C89.2878 25.3145 89.4473 25.6038 89.5566 25.9639C89.6706 26.3239 89.7275 26.7637 89.7275 27.2832V32H87.7451V27.2764C87.7451 26.9482 87.6995 26.693 87.6084 26.5107C87.5173 26.3285 87.3828 26.2008 87.2051 26.1279C87.0319 26.0505 86.8177 26.0117 86.5625 26.0117C86.2982 26.0117 86.068 26.0641 85.8721 26.1689C85.6807 26.2738 85.5212 26.4196 85.3936 26.6064C85.2705 26.7887 85.1771 27.0029 85.1133 27.249C85.0495 27.4951 85.0176 27.7594 85.0176 28.042ZM94.8477 24.6035V25.998H90.541V24.6035H94.8477ZM91.6074 22.7783H93.5762V29.7715C93.5762 29.9857 93.6035 30.1497 93.6582 30.2637C93.7174 30.3776 93.804 30.4574 93.918 30.5029C94.0319 30.5439 94.1755 30.5645 94.3486 30.5645C94.4717 30.5645 94.5811 30.5599 94.6768 30.5508C94.777 30.5371 94.8613 30.5234 94.9297 30.5098L94.9365 31.959C94.7679 32.0137 94.5856 32.057 94.3896 32.0889C94.1937 32.1208 93.9772 32.1367 93.7402 32.1367C93.3073 32.1367 92.929 32.0661 92.6055 31.9248C92.2865 31.779 92.0404 31.5465 91.8672 31.2275C91.694 30.9085 91.6074 30.4893 91.6074 29.9697V22.7783ZM99.373 32.1367C98.7988 32.1367 98.2839 32.0456 97.8281 31.8633C97.3724 31.6764 96.985 31.4189 96.666 31.0908C96.3516 30.7627 96.11 30.3822 95.9414 29.9492C95.7728 29.5117 95.6885 29.0469 95.6885 28.5547V28.2812C95.6885 27.7207 95.7682 27.208 95.9277 26.7432C96.0872 26.2783 96.3151 25.875 96.6113 25.5332C96.9121 25.1914 97.2767 24.9294 97.7051 24.7471C98.1335 24.5602 98.6165 24.4668 99.1543 24.4668C99.6784 24.4668 100.143 24.5534 100.549 24.7266C100.954 24.8997 101.294 25.1458 101.567 25.4648C101.845 25.7839 102.055 26.1667 102.196 26.6133C102.338 27.0553 102.408 27.5475 102.408 28.0898V28.9102H96.5293V27.5977H100.474V27.4473C100.474 27.1738 100.424 26.93 100.323 26.7158C100.228 26.4971 100.082 26.3239 99.8857 26.1963C99.6898 26.0687 99.4391 26.0049 99.1338 26.0049C98.874 26.0049 98.6507 26.0618 98.4639 26.1758C98.277 26.2897 98.1243 26.4492 98.0059 26.6543C97.8919 26.8594 97.8053 27.1009 97.7461 27.3789C97.6914 27.6523 97.6641 27.9531 97.6641 28.2812V28.5547C97.6641 28.8509 97.7051 29.1243 97.7871 29.375C97.8737 29.6257 97.9945 29.8421 98.1494 30.0244C98.3089 30.2067 98.5003 30.348 98.7236 30.4482C98.9515 30.5485 99.209 30.5986 99.4961 30.5986C99.8516 30.5986 100.182 30.5303 100.487 30.3936C100.797 30.2523 101.064 30.0404 101.287 29.7578L102.244 30.7969C102.089 31.0202 101.877 31.2344 101.608 31.4395C101.344 31.6445 101.025 31.8132 100.651 31.9453C100.278 32.0729 99.8516 32.1367 99.373 32.1367ZM105.457 26.1826V32H103.488V24.6035H105.334L105.457 26.1826ZM105.17 28.042H104.637C104.637 27.4951 104.707 27.0029 104.849 26.5654C104.99 26.1234 105.188 25.7474 105.443 25.4375C105.699 25.123 106.002 24.8838 106.353 24.7197C106.708 24.5511 107.104 24.4668 107.542 24.4668C107.888 24.4668 108.205 24.5169 108.492 24.6172C108.779 24.7174 109.025 24.877 109.23 25.0957C109.44 25.3145 109.6 25.6038 109.709 25.9639C109.823 26.3239 109.88 26.7637 109.88 27.2832V32H107.897V27.2764C107.897 26.9482 107.852 26.693 107.761 26.5107C107.67 26.3285 107.535 26.2008 107.357 26.1279C107.184 26.0505 106.97 26.0117 106.715 26.0117C106.451 26.0117 106.22 26.0641 106.024 26.1689C105.833 26.2738 105.674 26.4196 105.546 26.6064C105.423 26.7887 105.329 27.0029 105.266 27.249C105.202 27.4951 105.17 27.7594 105.17 28.042ZM116.941 24.6035V32H114.966V24.6035H116.941ZM114.843 22.6758C114.843 22.3887 114.943 22.1517 115.144 21.9648C115.344 21.778 115.613 21.6846 115.95 21.6846C116.283 21.6846 116.549 21.778 116.75 21.9648C116.955 22.1517 117.058 22.3887 117.058 22.6758C117.058 22.9629 116.955 23.1999 116.75 23.3867C116.549 23.5736 116.283 23.667 115.95 23.667C115.613 23.667 115.344 23.5736 115.144 23.3867C114.943 23.1999 114.843 22.9629 114.843 22.6758ZM120.496 26.1826V32H118.527V24.6035H120.373L120.496 26.1826ZM120.209 28.042H119.676C119.676 27.4951 119.746 27.0029 119.888 26.5654C120.029 26.1234 120.227 25.7474 120.482 25.4375C120.738 25.123 121.041 24.8838 121.392 24.7197C121.747 24.5511 122.144 24.4668 122.581 24.4668C122.927 24.4668 123.244 24.5169 123.531 24.6172C123.818 24.7174 124.064 24.877 124.27 25.0957C124.479 25.3145 124.639 25.6038 124.748 25.9639C124.862 26.3239 124.919 26.7637 124.919 27.2832V32H122.937V27.2764C122.937 26.9482 122.891 26.693 122.8 26.5107C122.709 26.3285 122.574 26.2008 122.396 26.1279C122.223 26.0505 122.009 26.0117 121.754 26.0117C121.49 26.0117 121.259 26.0641 121.063 26.1689C120.872 26.2738 120.713 26.4196 120.585 26.6064C120.462 26.7887 120.368 27.0029 120.305 27.249C120.241 27.4951 120.209 27.7594 120.209 28.042ZM128.494 24.6035V32H126.519V24.6035H128.494ZM126.396 22.6758C126.396 22.3887 126.496 22.1517 126.696 21.9648C126.897 21.778 127.166 21.6846 127.503 21.6846C127.836 21.6846 128.102 21.778 128.303 21.9648C128.508 22.1517 128.61 22.3887 128.61 22.6758C128.61 22.9629 128.508 23.1999 128.303 23.3867C128.102 23.5736 127.836 23.667 127.503 23.667C127.166 23.667 126.897 23.5736 126.696 23.3867C126.496 23.1999 126.396 22.9629 126.396 22.6758ZM138.29 24.6035H140.074V31.7539C140.074 32.4284 139.924 33.0003 139.623 33.4697C139.327 33.9437 138.912 34.3014 138.379 34.543C137.846 34.7891 137.226 34.9121 136.52 34.9121C136.21 34.9121 135.882 34.8711 135.535 34.7891C135.193 34.707 134.865 34.5794 134.551 34.4062C134.241 34.2331 133.981 34.0143 133.771 33.75L134.64 32.5879C134.868 32.8522 135.132 33.0573 135.433 33.2031C135.733 33.3535 136.066 33.4287 136.431 33.4287C136.786 33.4287 137.087 33.3626 137.333 33.2305C137.579 33.1029 137.768 32.9137 137.9 32.6631C138.033 32.417 138.099 32.1185 138.099 31.7676V26.3125L138.29 24.6035ZM133.313 28.3906V28.2471C133.313 27.682 133.382 27.1693 133.519 26.709C133.66 26.2441 133.858 25.8454 134.113 25.5127C134.373 25.18 134.688 24.9225 135.057 24.7402C135.426 24.5579 135.843 24.4668 136.308 24.4668C136.8 24.4668 137.212 24.5579 137.545 24.7402C137.878 24.9225 138.151 25.1823 138.365 25.5195C138.579 25.8522 138.746 26.2464 138.864 26.7021C138.987 27.1533 139.083 27.6478 139.151 28.1855V28.5C139.083 29.015 138.98 29.4935 138.844 29.9355C138.707 30.3776 138.527 30.765 138.304 31.0977C138.08 31.4258 137.802 31.681 137.47 31.8633C137.142 32.0456 136.75 32.1367 136.294 32.1367C135.838 32.1367 135.426 32.0433 135.057 31.8564C134.692 31.6696 134.38 31.4076 134.12 31.0703C133.86 30.7331 133.66 30.3366 133.519 29.8809C133.382 29.4251 133.313 28.9284 133.313 28.3906ZM135.282 28.2471V28.3906C135.282 28.696 135.312 28.9808 135.371 29.2451C135.43 29.5094 135.521 29.7441 135.645 29.9492C135.772 30.1497 135.929 30.307 136.116 30.4209C136.308 30.5303 136.533 30.585 136.793 30.585C137.153 30.585 137.447 30.5098 137.675 30.3594C137.903 30.2044 138.074 29.9925 138.188 29.7236C138.301 29.4548 138.368 29.1449 138.386 28.7939V27.8984C138.377 27.6113 138.338 27.3538 138.27 27.126C138.201 26.8936 138.105 26.6953 137.982 26.5312C137.859 26.3672 137.7 26.2396 137.504 26.1484C137.308 26.0573 137.076 26.0117 136.807 26.0117C136.547 26.0117 136.321 26.071 136.13 26.1895C135.943 26.3034 135.786 26.4606 135.658 26.6611C135.535 26.8617 135.442 27.0986 135.378 27.3721C135.314 27.641 135.282 27.9326 135.282 28.2471ZM145.598 30.332V27.0371C145.598 26.8001 145.559 26.5973 145.481 26.4287C145.404 26.2555 145.283 26.1211 145.119 26.0254C144.96 25.9297 144.752 25.8818 144.497 25.8818C144.278 25.8818 144.089 25.9206 143.93 25.998C143.77 26.071 143.647 26.1781 143.561 26.3193C143.474 26.4561 143.431 26.6178 143.431 26.8047H141.462C141.462 26.4902 141.535 26.1917 141.681 25.9092C141.826 25.6266 142.038 25.3783 142.316 25.1641C142.594 24.9453 142.925 24.7744 143.308 24.6514C143.695 24.5283 144.128 24.4668 144.606 24.4668C145.181 24.4668 145.691 24.5625 146.138 24.7539C146.584 24.9453 146.935 25.2324 147.19 25.6152C147.45 25.998 147.58 26.4766 147.58 27.0508V30.2158C147.58 30.6214 147.605 30.9541 147.655 31.2139C147.705 31.4691 147.778 31.6924 147.874 31.8838V32H145.885C145.789 31.7995 145.716 31.5488 145.666 31.248C145.62 30.9427 145.598 30.6374 145.598 30.332ZM145.857 27.4951L145.871 28.6094H144.771C144.511 28.6094 144.285 28.639 144.094 28.6982C143.902 28.7575 143.745 28.8418 143.622 28.9512C143.499 29.056 143.408 29.179 143.349 29.3203C143.294 29.4616 143.267 29.6165 143.267 29.7852C143.267 29.9538 143.305 30.1064 143.383 30.2432C143.46 30.3753 143.572 30.4801 143.718 30.5576C143.864 30.6305 144.035 30.667 144.23 30.667C144.527 30.667 144.784 30.6077 145.003 30.4893C145.222 30.3708 145.39 30.2249 145.509 30.0518C145.632 29.8786 145.696 29.7145 145.7 29.5596L146.22 30.3936C146.147 30.5804 146.047 30.7741 145.919 30.9746C145.796 31.1751 145.639 31.3643 145.447 31.542C145.256 31.7152 145.026 31.8587 144.757 31.9727C144.488 32.082 144.169 32.1367 143.8 32.1367C143.33 32.1367 142.904 32.0433 142.521 31.8564C142.143 31.665 141.842 31.403 141.619 31.0703C141.4 30.7331 141.291 30.3503 141.291 29.9219C141.291 29.5345 141.364 29.1904 141.51 28.8896C141.656 28.5889 141.87 28.3359 142.152 28.1309C142.439 27.9212 142.797 27.764 143.226 27.6592C143.654 27.5498 144.151 27.4951 144.716 27.4951H145.857ZM153.78 24.6035H155.564V31.7539C155.564 32.4284 155.414 33.0003 155.113 33.4697C154.817 33.9437 154.402 34.3014 153.869 34.543C153.336 34.7891 152.716 34.9121 152.01 34.9121C151.7 34.9121 151.372 34.8711 151.025 34.7891C150.684 34.707 150.355 34.5794 150.041 34.4062C149.731 34.2331 149.471 34.0143 149.262 33.75L150.13 32.5879C150.358 32.8522 150.622 33.0573 150.923 33.2031C151.224 33.3535 151.556 33.4287 151.921 33.4287C152.276 33.4287 152.577 33.3626 152.823 33.2305C153.069 33.1029 153.258 32.9137 153.391 32.6631C153.523 32.417 153.589 32.1185 153.589 31.7676V26.3125L153.78 24.6035ZM148.804 28.3906V28.2471C148.804 27.682 148.872 27.1693 149.009 26.709C149.15 26.2441 149.348 25.8454 149.604 25.5127C149.863 25.18 150.178 24.9225 150.547 24.7402C150.916 24.5579 151.333 24.4668 151.798 24.4668C152.29 24.4668 152.702 24.5579 153.035 24.7402C153.368 24.9225 153.641 25.1823 153.855 25.5195C154.07 25.8522 154.236 26.2464 154.354 26.7021C154.478 27.1533 154.573 27.6478 154.642 28.1855V28.5C154.573 29.015 154.471 29.4935 154.334 29.9355C154.197 30.3776 154.017 30.765 153.794 31.0977C153.571 31.4258 153.293 31.681 152.96 31.8633C152.632 32.0456 152.24 32.1367 151.784 32.1367C151.328 32.1367 150.916 32.0433 150.547 31.8564C150.182 31.6696 149.87 31.4076 149.61 31.0703C149.351 30.7331 149.15 30.3366 149.009 29.8809C148.872 29.4251 148.804 28.9284 148.804 28.3906ZM150.772 28.2471V28.3906C150.772 28.696 150.802 28.9808 150.861 29.2451C150.921 29.5094 151.012 29.7441 151.135 29.9492C151.262 30.1497 151.42 30.307 151.606 30.4209C151.798 30.5303 152.023 30.585 152.283 30.585C152.643 30.585 152.937 30.5098 153.165 30.3594C153.393 30.2044 153.564 29.9925 153.678 29.7236C153.792 29.4548 153.858 29.1449 153.876 28.7939V27.8984C153.867 27.6113 153.828 27.3538 153.76 27.126C153.691 26.8936 153.596 26.6953 153.473 26.5312C153.35 26.3672 153.19 26.2396 152.994 26.1484C152.798 26.0573 152.566 26.0117 152.297 26.0117C152.037 26.0117 151.812 26.071 151.62 26.1895C151.433 26.3034 151.276 26.4606 151.148 26.6611C151.025 26.8617 150.932 27.0986 150.868 27.3721C150.804 27.641 150.772 27.9326 150.772 28.2471ZM161.088 30.332V27.0371C161.088 26.8001 161.049 26.5973 160.972 26.4287C160.894 26.2555 160.773 26.1211 160.609 26.0254C160.45 25.9297 160.243 25.8818 159.987 25.8818C159.769 25.8818 159.579 25.9206 159.42 25.998C159.26 26.071 159.137 26.1781 159.051 26.3193C158.964 26.4561 158.921 26.6178 158.921 26.8047H156.952C156.952 26.4902 157.025 26.1917 157.171 25.9092C157.317 25.6266 157.529 25.3783 157.807 25.1641C158.085 24.9453 158.415 24.7744 158.798 24.6514C159.185 24.5283 159.618 24.4668 160.097 24.4668C160.671 24.4668 161.181 24.5625 161.628 24.7539C162.075 24.9453 162.425 25.2324 162.681 25.6152C162.94 25.998 163.07 26.4766 163.07 27.0508V30.2158C163.07 30.6214 163.095 30.9541 163.146 31.2139C163.196 31.4691 163.269 31.6924 163.364 31.8838V32H161.375C161.279 31.7995 161.206 31.5488 161.156 31.248C161.111 30.9427 161.088 30.6374 161.088 30.332ZM161.348 27.4951L161.361 28.6094H160.261C160.001 28.6094 159.775 28.639 159.584 28.6982C159.393 28.7575 159.235 28.8418 159.112 28.9512C158.989 29.056 158.898 29.179 158.839 29.3203C158.784 29.4616 158.757 29.6165 158.757 29.7852C158.757 29.9538 158.796 30.1064 158.873 30.2432C158.951 30.3753 159.062 30.4801 159.208 30.5576C159.354 30.6305 159.525 30.667 159.721 30.667C160.017 30.667 160.274 30.6077 160.493 30.4893C160.712 30.3708 160.881 30.2249 160.999 30.0518C161.122 29.8786 161.186 29.7145 161.19 29.5596L161.71 30.3936C161.637 30.5804 161.537 30.7741 161.409 30.9746C161.286 31.1751 161.129 31.3643 160.938 31.542C160.746 31.7152 160.516 31.8587 160.247 31.9727C159.978 32.082 159.659 32.1367 159.29 32.1367C158.821 32.1367 158.395 32.0433 158.012 31.8564C157.633 31.665 157.333 31.403 157.109 31.0703C156.891 30.7331 156.781 30.3503 156.781 29.9219C156.781 29.5345 156.854 29.1904 157 28.8896C157.146 28.5889 157.36 28.3359 157.643 28.1309C157.93 27.9212 158.287 27.764 158.716 27.6592C159.144 27.5498 159.641 27.4951 160.206 27.4951H161.348ZM166.666 21.5V32H164.69V21.5H166.666ZM176.147 30.3867V21.5H178.13V32H176.346L176.147 30.3867ZM171.472 28.3906V28.2471C171.472 27.682 171.535 27.1693 171.663 26.709C171.791 26.2441 171.978 25.8454 172.224 25.5127C172.47 25.18 172.773 24.9225 173.133 24.7402C173.493 24.5579 173.903 24.4668 174.363 24.4668C174.796 24.4668 175.174 24.5579 175.498 24.7402C175.826 24.9225 176.104 25.1823 176.332 25.5195C176.564 25.8522 176.751 26.2464 176.893 26.7021C177.034 27.1533 177.136 27.6478 177.2 28.1855V28.5C177.136 29.015 177.034 29.4935 176.893 29.9355C176.751 30.3776 176.564 30.765 176.332 31.0977C176.104 31.4258 175.826 31.681 175.498 31.8633C175.17 32.0456 174.787 32.1367 174.35 32.1367C173.889 32.1367 173.479 32.0433 173.119 31.8564C172.764 31.6696 172.463 31.4076 172.217 31.0703C171.975 30.7331 171.791 30.3366 171.663 29.8809C171.535 29.4251 171.472 28.9284 171.472 28.3906ZM173.44 28.2471V28.3906C173.44 28.696 173.463 28.9808 173.509 29.2451C173.559 29.5094 173.639 29.7441 173.748 29.9492C173.862 30.1497 174.008 30.307 174.186 30.4209C174.368 30.5303 174.589 30.585 174.849 30.585C175.186 30.585 175.464 30.5098 175.683 30.3594C175.901 30.2044 176.068 29.9925 176.182 29.7236C176.3 29.4548 176.368 29.1449 176.387 28.7939V27.8984C176.373 27.6113 176.332 27.3538 176.264 27.126C176.2 26.8936 176.104 26.6953 175.977 26.5312C175.854 26.3672 175.699 26.2396 175.512 26.1484C175.329 26.0573 175.113 26.0117 174.862 26.0117C174.607 26.0117 174.388 26.071 174.206 26.1895C174.024 26.3034 173.876 26.4606 173.762 26.6611C173.652 26.8617 173.57 27.0986 173.516 27.3721C173.465 27.641 173.44 27.9326 173.44 28.2471ZM181.746 24.6035V32H179.771V24.6035H181.746ZM179.647 22.6758C179.647 22.3887 179.748 22.1517 179.948 21.9648C180.149 21.778 180.418 21.6846 180.755 21.6846C181.088 21.6846 181.354 21.778 181.555 21.9648C181.76 22.1517 181.862 22.3887 181.862 22.6758C181.862 22.9629 181.76 23.1999 181.555 23.3867C181.354 23.5736 181.088 23.667 180.755 23.667C180.418 23.667 180.149 23.5736 179.948 23.3867C179.748 23.1999 179.647 22.9629 179.647 22.6758ZM186.996 24.6035V25.998H182.689V24.6035H186.996ZM183.756 22.7783H185.725V29.7715C185.725 29.9857 185.752 30.1497 185.807 30.2637C185.866 30.3776 185.952 30.4574 186.066 30.5029C186.18 30.5439 186.324 30.5645 186.497 30.5645C186.62 30.5645 186.729 30.5599 186.825 30.5508C186.925 30.5371 187.01 30.5234 187.078 30.5098L187.085 31.959C186.916 32.0137 186.734 32.057 186.538 32.0889C186.342 32.1208 186.126 32.1367 185.889 32.1367C185.456 32.1367 185.077 32.0661 184.754 31.9248C184.435 31.779 184.189 31.5465 184.016 31.2275C183.842 30.9085 183.756 30.4893 183.756 29.9697V22.7783ZM192.109 30.332V27.0371C192.109 26.8001 192.071 26.5973 191.993 26.4287C191.916 26.2555 191.795 26.1211 191.631 26.0254C191.471 25.9297 191.264 25.8818 191.009 25.8818C190.79 25.8818 190.601 25.9206 190.441 25.998C190.282 26.071 190.159 26.1781 190.072 26.3193C189.986 26.4561 189.942 26.6178 189.942 26.8047H187.974C187.974 26.4902 188.047 26.1917 188.192 25.9092C188.338 25.6266 188.55 25.3783 188.828 25.1641C189.106 24.9453 189.437 24.7744 189.819 24.6514C190.207 24.5283 190.64 24.4668 191.118 24.4668C191.692 24.4668 192.203 24.5625 192.649 24.7539C193.096 24.9453 193.447 25.2324 193.702 25.6152C193.962 25.998 194.092 26.4766 194.092 27.0508V30.2158C194.092 30.6214 194.117 30.9541 194.167 31.2139C194.217 31.4691 194.29 31.6924 194.386 31.8838V32H192.396C192.301 31.7995 192.228 31.5488 192.178 31.248C192.132 30.9427 192.109 30.6374 192.109 30.332ZM192.369 27.4951L192.383 28.6094H191.282C191.022 28.6094 190.797 28.639 190.605 28.6982C190.414 28.7575 190.257 28.8418 190.134 28.9512C190.011 29.056 189.92 29.179 189.86 29.3203C189.806 29.4616 189.778 29.6165 189.778 29.7852C189.778 29.9538 189.817 30.1064 189.895 30.2432C189.972 30.3753 190.084 30.4801 190.229 30.5576C190.375 30.6305 190.546 30.667 190.742 30.667C191.038 30.667 191.296 30.6077 191.515 30.4893C191.733 30.3708 191.902 30.2249 192.021 30.0518C192.144 29.8786 192.207 29.7145 192.212 29.5596L192.731 30.3936C192.659 30.5804 192.558 30.7741 192.431 30.9746C192.308 31.1751 192.15 31.3643 191.959 31.542C191.768 31.7152 191.537 31.8587 191.269 31.9727C191 32.082 190.681 32.1367 190.312 32.1367C189.842 32.1367 189.416 32.0433 189.033 31.8564C188.655 31.665 188.354 31.403 188.131 31.0703C187.912 30.7331 187.803 30.3503 187.803 29.9219C187.803 29.5345 187.876 29.1904 188.021 28.8896C188.167 28.5889 188.382 28.3359 188.664 28.1309C188.951 27.9212 189.309 27.764 189.737 27.6592C190.166 27.5498 190.662 27.4951 191.228 27.4951H192.369ZM197.578 26.1348V32H195.603V24.6035H197.455L197.578 26.1348ZM197.305 28.042H196.758C196.758 27.527 196.819 27.0531 196.942 26.6201C197.07 26.1826 197.255 25.8044 197.496 25.4854C197.742 25.1618 198.045 24.9111 198.405 24.7334C198.765 24.5557 199.182 24.4668 199.656 24.4668C199.984 24.4668 200.285 24.5169 200.559 24.6172C200.832 24.7129 201.067 24.8656 201.263 25.0752C201.463 25.2803 201.618 25.5492 201.728 25.8818C201.837 26.21 201.892 26.6042 201.892 27.0645V32H199.923V27.2832C199.923 26.946 199.877 26.6862 199.786 26.5039C199.695 26.3216 199.565 26.194 199.396 26.1211C199.232 26.0482 199.034 26.0117 198.802 26.0117C198.547 26.0117 198.323 26.0641 198.132 26.1689C197.945 26.2738 197.79 26.4196 197.667 26.6064C197.544 26.7887 197.453 27.0029 197.394 27.249C197.334 27.4951 197.305 27.7594 197.305 28.042ZM201.707 27.8164L201.003 27.9053C201.003 27.4222 201.062 26.9733 201.181 26.5586C201.304 26.1439 201.484 25.7793 201.721 25.4648C201.962 25.1504 202.261 24.9066 202.616 24.7334C202.972 24.5557 203.382 24.4668 203.847 24.4668C204.202 24.4668 204.526 24.5192 204.817 24.624C205.109 24.7243 205.357 24.8861 205.562 25.1094C205.772 25.3281 205.932 25.6152 206.041 25.9707C206.155 26.3262 206.212 26.7614 206.212 27.2764V32H204.236V27.2764C204.236 26.9346 204.191 26.6748 204.1 26.4971C204.013 26.3148 203.885 26.1895 203.717 26.1211C203.553 26.0482 203.357 26.0117 203.129 26.0117C202.892 26.0117 202.685 26.0596 202.507 26.1553C202.329 26.2464 202.181 26.374 202.062 26.5381C201.944 26.7021 201.855 26.8936 201.796 27.1123C201.737 27.3265 201.707 27.5612 201.707 27.8164ZM209.705 26.0254V34.8438H207.736V24.6035H209.562L209.705 26.0254ZM214.388 28.2197V28.3633C214.388 28.901 214.324 29.4001 214.196 29.8604C214.073 30.3206 213.891 30.7217 213.649 31.0635C213.408 31.4007 213.107 31.665 212.747 31.8564C212.392 32.0433 211.981 32.1367 211.517 32.1367C211.065 32.1367 210.674 32.0456 210.341 31.8633C210.008 31.681 209.728 31.4258 209.5 31.0977C209.277 30.765 209.097 30.3799 208.96 29.9424C208.823 29.5049 208.718 29.0355 208.646 28.5342V28.1582C208.718 27.6204 208.823 27.1283 208.96 26.6816C209.097 26.2305 209.277 25.8408 209.5 25.5127C209.728 25.18 210.006 24.9225 210.334 24.7402C210.667 24.5579 211.056 24.4668 211.503 24.4668C211.972 24.4668 212.385 24.5557 212.74 24.7334C213.1 24.9111 213.401 25.1663 213.643 25.499C213.889 25.8317 214.073 26.2282 214.196 26.6885C214.324 27.1488 214.388 27.6592 214.388 28.2197ZM212.412 28.3633V28.2197C212.412 27.9053 212.385 27.6159 212.33 27.3516C212.28 27.0827 212.198 26.848 212.084 26.6475C211.975 26.4469 211.829 26.292 211.646 26.1826C211.469 26.0687 211.252 26.0117 210.997 26.0117C210.728 26.0117 210.498 26.055 210.307 26.1416C210.12 26.2282 209.967 26.3535 209.849 26.5176C209.73 26.6816 209.641 26.8776 209.582 27.1055C209.523 27.3333 209.486 27.5908 209.473 27.8779V28.8281C209.495 29.1654 209.559 29.4684 209.664 29.7373C209.769 30.0016 209.931 30.2113 210.149 30.3662C210.368 30.5212 210.655 30.5986 211.011 30.5986C211.271 30.5986 211.489 30.5417 211.667 30.4277C211.845 30.3092 211.988 30.1475 212.098 29.9424C212.212 29.7373 212.291 29.5003 212.337 29.2314C212.387 28.9626 212.412 28.6732 212.412 28.3633ZM217.689 24.6035V32H215.714V24.6035H217.689ZM215.591 22.6758C215.591 22.3887 215.691 22.1517 215.892 21.9648C216.092 21.778 216.361 21.6846 216.698 21.6846C217.031 21.6846 217.298 21.778 217.498 21.9648C217.703 22.1517 217.806 22.3887 217.806 22.6758C217.806 22.9629 217.703 23.1999 217.498 23.3867C217.298 23.5736 217.031 23.667 216.698 23.667C216.361 23.667 216.092 23.5736 215.892 23.3867C215.691 23.1999 215.591 22.9629 215.591 22.6758ZM221.395 21.5V32H219.419V21.5H221.395ZM224.99 21.4932V32H223.021V21.4932H224.99ZM229.652 24.6035L226.439 28.2676L224.717 30.0107L223.999 28.5889L225.366 26.8525L227.287 24.6035H229.652ZM227.608 32L225.421 28.582L226.781 27.3926L229.878 32H227.608ZM234.492 30.332V27.0371C234.492 26.8001 234.453 26.5973 234.376 26.4287C234.299 26.2555 234.178 26.1211 234.014 26.0254C233.854 25.9297 233.647 25.8818 233.392 25.8818C233.173 25.8818 232.984 25.9206 232.824 25.998C232.665 26.071 232.542 26.1781 232.455 26.3193C232.368 26.4561 232.325 26.6178 232.325 26.8047H230.356C230.356 26.4902 230.429 26.1917 230.575 25.9092C230.721 25.6266 230.933 25.3783 231.211 25.1641C231.489 24.9453 231.819 24.7744 232.202 24.6514C232.59 24.5283 233.022 24.4668 233.501 24.4668C234.075 24.4668 234.586 24.5625 235.032 24.7539C235.479 24.9453 235.83 25.2324 236.085 25.6152C236.345 25.998 236.475 26.4766 236.475 27.0508V30.2158C236.475 30.6214 236.5 30.9541 236.55 31.2139C236.6 31.4691 236.673 31.6924 236.769 31.8838V32H234.779C234.684 31.7995 234.611 31.5488 234.561 31.248C234.515 30.9427 234.492 30.6374 234.492 30.332ZM234.752 27.4951L234.766 28.6094H233.665C233.405 28.6094 233.18 28.639 232.988 28.6982C232.797 28.7575 232.64 28.8418 232.517 28.9512C232.394 29.056 232.302 29.179 232.243 29.3203C232.188 29.4616 232.161 29.6165 232.161 29.7852C232.161 29.9538 232.2 30.1064 232.277 30.2432C232.355 30.3753 232.466 30.4801 232.612 30.5576C232.758 30.6305 232.929 30.667 233.125 30.667C233.421 30.667 233.679 30.6077 233.897 30.4893C234.116 30.3708 234.285 30.2249 234.403 30.0518C234.526 29.8786 234.59 29.7145 234.595 29.5596L235.114 30.3936C235.041 30.5804 234.941 30.7741 234.813 30.9746C234.69 31.1751 234.533 31.3643 234.342 31.542C234.15 31.7152 233.92 31.8587 233.651 31.9727C233.382 32.082 233.063 32.1367 232.694 32.1367C232.225 32.1367 231.799 32.0433 231.416 31.8564C231.038 31.665 230.737 31.403 230.514 31.0703C230.295 30.7331 230.186 30.3503 230.186 29.9219C230.186 29.5345 230.258 29.1904 230.404 28.8896C230.55 28.5889 230.764 28.3359 231.047 28.1309C231.334 27.9212 231.692 27.764 232.12 27.6592C232.549 27.5498 233.045 27.4951 233.61 27.4951H234.752ZM239.92 26.1826V32H237.951V24.6035H239.797L239.92 26.1826ZM239.633 28.042H239.1C239.1 27.4951 239.17 27.0029 239.312 26.5654C239.453 26.1234 239.651 25.7474 239.906 25.4375C240.161 25.123 240.465 24.8838 240.815 24.7197C241.171 24.5511 241.567 24.4668 242.005 24.4668C242.351 24.4668 242.668 24.5169 242.955 24.6172C243.242 24.7174 243.488 24.877 243.693 25.0957C243.903 25.3145 244.062 25.6038 244.172 25.9639C244.286 26.3239 244.343 26.7637 244.343 27.2832V32H242.36V27.2764C242.36 26.9482 242.315 26.693 242.224 26.5107C242.132 26.3285 241.998 26.2008 241.82 26.1279C241.647 26.0505 241.433 26.0117 241.178 26.0117C240.913 26.0117 240.683 26.0641 240.487 26.1689C240.296 26.2738 240.136 26.4196 240.009 26.6064C239.886 26.7887 239.792 27.0029 239.729 27.249C239.665 27.4951 239.633 27.7594 239.633 28.042Z" fill="#1E1E1E"/>
<path d="M71.0757 49.0234C71.0757 48.8408 71.047 48.6797 70.9897 48.54C70.936 48.3968 70.8394 48.2679 70.6997 48.1533C70.5636 48.0387 70.3739 47.9295 70.1304 47.8257C69.8905 47.7218 69.5861 47.6162 69.2173 47.5088C68.8306 47.3942 68.4814 47.2671 68.1699 47.1274C67.8584 46.9842 67.5916 46.8213 67.3696 46.6387C67.1476 46.4561 66.9775 46.2466 66.8594 46.0103C66.7412 45.7739 66.6821 45.5036 66.6821 45.1992C66.6821 44.8949 66.7448 44.6138 66.8701 44.356C66.9954 44.0981 67.1745 43.8743 67.4072 43.6846C67.6436 43.4912 67.9246 43.3408 68.2505 43.2334C68.5763 43.126 68.9398 43.0723 69.3408 43.0723C69.9281 43.0723 70.4258 43.1851 70.834 43.4106C71.2458 43.6326 71.5591 43.9245 71.7739 44.2861C71.9888 44.6442 72.0962 45.0273 72.0962 45.4355H71.0649C71.0649 45.1419 71.0023 44.8823 70.877 44.6567C70.7516 44.4276 70.5618 44.2485 70.3076 44.1196C70.0534 43.9871 69.7311 43.9209 69.3408 43.9209C68.972 43.9209 68.6676 43.9764 68.4277 44.0874C68.1878 44.1984 68.0088 44.3488 67.8906 44.5386C67.776 44.7284 67.7188 44.945 67.7188 45.1885C67.7188 45.3532 67.7528 45.5036 67.8208 45.6396C67.8924 45.7721 68.0016 45.8957 68.1484 46.0103C68.2988 46.1248 68.4886 46.2305 68.7178 46.3271C68.9505 46.4238 69.228 46.5169 69.5503 46.6064C69.9943 46.7318 70.3774 46.8714 70.6997 47.0254C71.022 47.1794 71.2869 47.353 71.4946 47.5464C71.7059 47.7362 71.8617 47.9528 71.9619 48.1963C72.0658 48.4362 72.1177 48.7083 72.1177 49.0127C72.1177 49.3314 72.0532 49.6196 71.9243 49.8774C71.7954 50.1353 71.611 50.3555 71.3711 50.5381C71.1312 50.7207 70.8429 50.8621 70.5063 50.9624C70.1733 51.0591 69.8009 51.1074 69.3892 51.1074C69.0275 51.1074 68.6712 51.0573 68.3203 50.957C67.973 50.8568 67.6561 50.7064 67.3696 50.5059C67.0868 50.3053 66.8594 50.0583 66.6875 49.7646C66.5192 49.4674 66.4351 49.1237 66.4351 48.7334H67.4663C67.4663 49.002 67.5182 49.2329 67.6221 49.4263C67.7259 49.616 67.8674 49.7736 68.0464 49.8989C68.229 50.0243 68.4349 50.1174 68.6641 50.1782C68.8968 50.2355 69.1385 50.2642 69.3892 50.2642C69.7508 50.2642 70.057 50.214 70.3076 50.1138C70.5583 50.0135 70.748 49.8703 70.877 49.6841C71.0094 49.4979 71.0757 49.2777 71.0757 49.0234ZM74.3682 45.1885V51H73.3691V45.1885H74.3682ZM73.2939 43.647C73.2939 43.4858 73.3423 43.3498 73.439 43.2388C73.5392 43.1278 73.686 43.0723 73.8794 43.0723C74.0692 43.0723 74.2142 43.1278 74.3145 43.2388C74.4183 43.3498 74.4702 43.4858 74.4702 43.647C74.4702 43.8009 74.4183 43.9334 74.3145 44.0444C74.2142 44.1519 74.0692 44.2056 73.8794 44.2056C73.686 44.2056 73.5392 44.1519 73.439 44.0444C73.3423 43.9334 73.2939 43.8009 73.2939 43.647ZM77.043 42.75V51H76.0439V42.75H77.043ZM82.0649 50.0063V47.0146C82.0649 46.7855 82.0184 46.5868 81.9253 46.4185C81.8358 46.2466 81.6997 46.1141 81.5171 46.021C81.3345 45.9279 81.1089 45.8813 80.8403 45.8813C80.5897 45.8813 80.3695 45.9243 80.1797 46.0103C79.9935 46.0962 79.8467 46.209 79.7393 46.3486C79.6354 46.4883 79.5835 46.6387 79.5835 46.7998H78.5898C78.5898 46.5921 78.6436 46.3862 78.751 46.1821C78.8584 45.978 79.0124 45.7936 79.2129 45.6289C79.417 45.4606 79.6605 45.3281 79.9434 45.2314C80.2298 45.1312 80.5485 45.0811 80.8994 45.0811C81.3219 45.0811 81.6943 45.1527 82.0166 45.2959C82.3424 45.4391 82.5967 45.6558 82.7793 45.9458C82.9655 46.2323 83.0586 46.5921 83.0586 47.0254V49.7324C83.0586 49.9258 83.0747 50.1317 83.1069 50.3501C83.1427 50.5685 83.1947 50.7565 83.2627 50.9141V51H82.2261C82.1759 50.8854 82.1366 50.7332 82.1079 50.5435C82.0793 50.3501 82.0649 50.1711 82.0649 50.0063ZM82.2368 47.4766L82.2476 48.1748H81.2432C80.9603 48.1748 80.7078 48.1981 80.4858 48.2446C80.2638 48.2876 80.0776 48.3538 79.9272 48.4434C79.7769 48.5329 79.6623 48.6457 79.5835 48.7817C79.5047 48.9142 79.4653 49.07 79.4653 49.249C79.4653 49.4316 79.5065 49.5981 79.5889 49.7485C79.6712 49.8989 79.7948 50.0189 79.9595 50.1084C80.1278 50.1943 80.3337 50.2373 80.5771 50.2373C80.8815 50.2373 81.1501 50.1729 81.3828 50.0439C81.6156 49.915 81.8 49.7575 81.936 49.5713C82.0757 49.3851 82.1509 49.2043 82.1616 49.0288L82.5859 49.5068C82.5609 49.6572 82.4928 49.8237 82.3818 50.0063C82.2708 50.189 82.1222 50.3644 81.936 50.5327C81.7534 50.6974 81.535 50.8353 81.2808 50.9463C81.0301 51.0537 80.7472 51.1074 80.4321 51.1074C80.0382 51.1074 79.6927 51.0304 79.3955 50.8765C79.1019 50.7225 78.8727 50.5166 78.708 50.2588C78.5469 49.9974 78.4663 49.7056 78.4663 49.3833C78.4663 49.0718 78.5272 48.7979 78.6489 48.5615C78.7707 48.3216 78.9461 48.1229 79.1753 47.9653C79.4045 47.8042 79.6802 47.6825 80.0024 47.6001C80.3247 47.5177 80.6846 47.4766 81.082 47.4766H82.2368ZM85.6206 42.75V51H84.6216V42.75H85.6206ZM89.1709 45.1885L86.6357 47.9009L85.2178 49.3726L85.1372 48.3145L86.1523 47.1006L87.957 45.1885H89.1709ZM88.2632 51L86.1899 48.2285L86.7056 47.3423L89.4341 51H88.2632ZM93.6235 50.0063V47.0146C93.6235 46.7855 93.577 46.5868 93.4839 46.4185C93.3944 46.2466 93.2583 46.1141 93.0757 46.021C92.8931 45.9279 92.6675 45.8813 92.3989 45.8813C92.1483 45.8813 91.9281 45.9243 91.7383 46.0103C91.5521 46.0962 91.4053 46.209 91.2979 46.3486C91.194 46.4883 91.1421 46.6387 91.1421 46.7998H90.1484C90.1484 46.5921 90.2021 46.3862 90.3096 46.1821C90.417 45.978 90.571 45.7936 90.7715 45.6289C90.9756 45.4606 91.2191 45.3281 91.502 45.2314C91.7884 45.1312 92.1071 45.0811 92.458 45.0811C92.8805 45.0811 93.2529 45.1527 93.5752 45.2959C93.901 45.4391 94.1553 45.6558 94.3379 45.9458C94.5241 46.2323 94.6172 46.5921 94.6172 47.0254V49.7324C94.6172 49.9258 94.6333 50.1317 94.6655 50.3501C94.7013 50.5685 94.7533 50.7565 94.8213 50.9141V51H93.7847C93.7345 50.8854 93.6951 50.7332 93.6665 50.5435C93.6379 50.3501 93.6235 50.1711 93.6235 50.0063ZM93.7954 47.4766L93.8062 48.1748H92.8018C92.5189 48.1748 92.2664 48.1981 92.0444 48.2446C91.8224 48.2876 91.6362 48.3538 91.4858 48.4434C91.3354 48.5329 91.2209 48.6457 91.1421 48.7817C91.0633 48.9142 91.0239 49.07 91.0239 49.249C91.0239 49.4316 91.0651 49.5981 91.1475 49.7485C91.2298 49.8989 91.3534 50.0189 91.5181 50.1084C91.6864 50.1943 91.8923 50.2373 92.1357 50.2373C92.4401 50.2373 92.7087 50.1729 92.9414 50.0439C93.1742 49.915 93.3586 49.7575 93.4946 49.5713C93.6343 49.3851 93.7095 49.2043 93.7202 49.0288L94.1445 49.5068C94.1195 49.6572 94.0514 49.8237 93.9404 50.0063C93.8294 50.189 93.6808 50.3644 93.4946 50.5327C93.312 50.6974 93.0936 50.8353 92.8394 50.9463C92.5887 51.0537 92.3058 51.1074 91.9907 51.1074C91.5968 51.1074 91.2513 51.0304 90.9541 50.8765C90.6605 50.7225 90.4313 50.5166 90.2666 50.2588C90.1055 49.9974 90.0249 49.7056 90.0249 49.3833C90.0249 49.0718 90.0858 48.7979 90.2075 48.5615C90.3293 48.3216 90.5047 48.1229 90.7339 47.9653C90.9631 47.8042 91.2388 47.6825 91.561 47.6001C91.8833 47.5177 92.2432 47.4766 92.6406 47.4766H93.7954ZM97.1738 46.4292V51H96.1802V45.1885H97.1201L97.1738 46.4292ZM96.9375 47.874L96.5239 47.8579C96.5275 47.4604 96.5866 47.0934 96.7012 46.7568C96.8158 46.4167 96.9769 46.1213 97.1846 45.8706C97.3923 45.62 97.6393 45.4266 97.9258 45.2905C98.2158 45.1509 98.5363 45.0811 98.8872 45.0811C99.1737 45.0811 99.4315 45.1204 99.6606 45.1992C99.8898 45.2744 100.085 45.3962 100.246 45.5645C100.411 45.7327 100.536 45.9512 100.622 46.2197C100.708 46.4847 100.751 46.8088 100.751 47.1919V51H99.752V47.1812C99.752 46.8768 99.7072 46.6333 99.6177 46.4507C99.5282 46.2645 99.3975 46.1302 99.2256 46.0479C99.0537 45.9619 98.8424 45.9189 98.5918 45.9189C98.3447 45.9189 98.1191 45.9709 97.915 46.0747C97.7145 46.1785 97.5409 46.3218 97.394 46.5044C97.2508 46.687 97.138 46.8965 97.0557 47.1328C96.9769 47.3656 96.9375 47.6126 96.9375 47.874ZM106.068 42.75V51H105.069V42.75H106.068ZM107.4 48.1587V48.0352C107.4 47.6162 107.461 47.2277 107.583 46.8696C107.705 46.508 107.88 46.1947 108.109 45.9297C108.339 45.6611 108.616 45.4535 108.942 45.3066C109.268 45.1562 109.633 45.0811 110.038 45.0811C110.446 45.0811 110.813 45.1562 111.139 45.3066C111.468 45.4535 111.747 45.6611 111.977 45.9297C112.209 46.1947 112.387 46.508 112.508 46.8696C112.63 47.2277 112.691 47.6162 112.691 48.0352V48.1587C112.691 48.5776 112.63 48.9661 112.508 49.3242C112.387 49.6823 112.209 49.9956 111.977 50.2642C111.747 50.5291 111.47 50.7368 111.144 50.8872C110.822 51.034 110.457 51.1074 110.048 51.1074C109.64 51.1074 109.273 51.034 108.947 50.8872C108.621 50.7368 108.342 50.5291 108.109 50.2642C107.88 49.9956 107.705 49.6823 107.583 49.3242C107.461 48.9661 107.4 48.5776 107.4 48.1587ZM108.394 48.0352V48.1587C108.394 48.4487 108.428 48.7227 108.496 48.9805C108.564 49.2347 108.666 49.4603 108.802 49.6572C108.942 49.8542 109.116 50.0099 109.323 50.1245C109.531 50.2355 109.773 50.291 110.048 50.291C110.32 50.291 110.559 50.2355 110.763 50.1245C110.97 50.0099 111.142 49.8542 111.278 49.6572C111.414 49.4603 111.516 49.2347 111.584 48.9805C111.656 48.7227 111.692 48.4487 111.692 48.1587V48.0352C111.692 47.7487 111.656 47.4784 111.584 47.2241C111.516 46.9663 111.413 46.7389 111.273 46.542C111.137 46.3415 110.965 46.1839 110.757 46.0693C110.553 45.9548 110.313 45.8975 110.038 45.8975C109.765 45.8975 109.526 45.9548 109.318 46.0693C109.114 46.1839 108.942 46.3415 108.802 46.542C108.666 46.7389 108.564 46.9663 108.496 47.2241C108.428 47.4784 108.394 47.7487 108.394 48.0352ZM117.364 50.0063V47.0146C117.364 46.7855 117.317 46.5868 117.224 46.4185C117.135 46.2466 116.999 46.1141 116.816 46.021C116.633 45.9279 116.408 45.8813 116.139 45.8813C115.889 45.8813 115.668 45.9243 115.479 46.0103C115.292 46.0962 115.146 46.209 115.038 46.3486C114.934 46.4883 114.882 46.6387 114.882 46.7998H113.889C113.889 46.5921 113.942 46.3862 114.05 46.1821C114.157 45.978 114.311 45.7936 114.512 45.6289C114.716 45.4606 114.959 45.3281 115.242 45.2314C115.529 45.1312 115.847 45.0811 116.198 45.0811C116.621 45.0811 116.993 45.1527 117.315 45.2959C117.641 45.4391 117.896 45.6558 118.078 45.9458C118.264 46.2323 118.357 46.5921 118.357 47.0254V49.7324C118.357 49.9258 118.374 50.1317 118.406 50.3501C118.442 50.5685 118.493 50.7565 118.562 50.9141V51H117.525C117.475 50.8854 117.435 50.7332 117.407 50.5435C117.378 50.3501 117.364 50.1711 117.364 50.0063ZM117.536 47.4766L117.546 48.1748H116.542C116.259 48.1748 116.007 48.1981 115.785 48.2446C115.563 48.2876 115.376 48.3538 115.226 48.4434C115.076 48.5329 114.961 48.6457 114.882 48.7817C114.804 48.9142 114.764 49.07 114.764 49.249C114.764 49.4316 114.805 49.5981 114.888 49.7485C114.97 49.8989 115.094 50.0189 115.258 50.1084C115.427 50.1943 115.632 50.2373 115.876 50.2373C116.18 50.2373 116.449 50.1729 116.682 50.0439C116.914 49.915 117.099 49.7575 117.235 49.5713C117.375 49.3851 117.45 49.2043 117.46 49.0288L117.885 49.5068C117.86 49.6572 117.792 49.8237 117.681 50.0063C117.57 50.189 117.421 50.3644 117.235 50.5327C117.052 50.6974 116.834 50.8353 116.58 50.9463C116.329 51.0537 116.046 51.1074 115.731 51.1074C115.337 51.1074 114.992 51.0304 114.694 50.8765C114.401 50.7225 114.172 50.5166 114.007 50.2588C113.846 49.9974 113.765 49.7056 113.765 49.3833C113.765 49.0718 113.826 48.7979 113.948 48.5615C114.069 48.3216 114.245 48.1229 114.474 47.9653C114.703 47.8042 114.979 47.6825 115.301 47.6001C115.624 47.5177 115.983 47.4766 116.381 47.4766H117.536ZM123.583 49.8721V42.75H124.583V51H123.669L123.583 49.8721ZM119.673 48.1587V48.0459C119.673 47.6019 119.727 47.1991 119.834 46.8374C119.945 46.4722 120.101 46.1589 120.302 45.8975C120.506 45.6361 120.748 45.4355 121.027 45.2959C121.31 45.1527 121.625 45.0811 121.972 45.0811C122.337 45.0811 122.656 45.1455 122.928 45.2744C123.204 45.3997 123.437 45.5841 123.626 45.8276C123.82 46.0675 123.972 46.3576 124.083 46.6978C124.194 47.0379 124.271 47.4229 124.314 47.8525V48.3467C124.275 48.7728 124.198 49.1559 124.083 49.4961C123.972 49.8363 123.82 50.1263 123.626 50.3662C123.437 50.6061 123.204 50.7905 122.928 50.9194C122.653 51.0448 122.33 51.1074 121.961 51.1074C121.621 51.1074 121.31 51.034 121.027 50.8872C120.748 50.7404 120.506 50.5345 120.302 50.2695C120.101 50.0046 119.945 49.693 119.834 49.335C119.727 48.9733 119.673 48.5812 119.673 48.1587ZM120.672 48.0459V48.1587C120.672 48.4487 120.701 48.7209 120.758 48.9751C120.819 49.2293 120.912 49.4531 121.038 49.6465C121.163 49.8398 121.322 49.992 121.516 50.103C121.709 50.2104 121.94 50.2642 122.208 50.2642C122.538 50.2642 122.808 50.1943 123.02 50.0547C123.234 49.915 123.406 49.7306 123.535 49.5015C123.664 49.2723 123.764 49.0234 123.836 48.7549V47.4604C123.793 47.2635 123.73 47.0737 123.648 46.8911C123.569 46.7049 123.465 46.5402 123.336 46.397C123.211 46.2502 123.055 46.1338 122.869 46.0479C122.687 45.9619 122.47 45.9189 122.219 45.9189C121.947 45.9189 121.713 45.9762 121.516 46.0908C121.322 46.2018 121.163 46.3558 121.038 46.5527C120.912 46.7461 120.819 46.9717 120.758 47.2295C120.701 47.4837 120.672 47.7559 120.672 48.0459ZM129.857 42.75V51H128.858V42.75H129.857ZM133.407 45.1885L130.872 47.9009L129.454 49.3726L129.374 48.3145L130.389 47.1006L132.193 45.1885H133.407ZM132.5 51L130.426 48.2285L130.942 47.3423L133.67 51H132.5ZM136.737 51.1074C136.333 51.1074 135.966 51.0394 135.636 50.9033C135.31 50.7637 135.029 50.5685 134.793 50.3179C134.56 50.0672 134.381 49.77 134.256 49.4263C134.131 49.0825 134.068 48.7065 134.068 48.2983V48.0728C134.068 47.6001 134.138 47.1794 134.277 46.8105C134.417 46.4382 134.607 46.123 134.847 45.8652C135.087 45.6074 135.359 45.4123 135.663 45.2798C135.967 45.1473 136.283 45.0811 136.608 45.0811C137.024 45.0811 137.382 45.1527 137.683 45.2959C137.987 45.4391 138.236 45.6396 138.429 45.8975C138.623 46.1517 138.766 46.4525 138.859 46.7998C138.952 47.1436 138.999 47.5195 138.999 47.9277V48.3735H134.659V47.5625H138.005V47.4873C137.991 47.2295 137.937 46.9788 137.844 46.7354C137.754 46.4919 137.611 46.2913 137.414 46.1338C137.217 45.9762 136.949 45.8975 136.608 45.8975C136.383 45.8975 136.175 45.9458 135.985 46.0425C135.796 46.1356 135.633 46.2752 135.497 46.4614C135.361 46.6476 135.255 46.875 135.18 47.1436C135.104 47.4121 135.067 47.7218 135.067 48.0728V48.2983C135.067 48.5741 135.104 48.8337 135.18 49.0771C135.258 49.3171 135.371 49.5283 135.518 49.7109C135.668 49.8936 135.849 50.0368 136.061 50.1406C136.275 50.2445 136.519 50.2964 136.791 50.2964C137.142 50.2964 137.439 50.2248 137.683 50.0815C137.926 49.9383 138.139 49.7467 138.322 49.5068L138.923 49.9849C138.798 50.1746 138.639 50.3555 138.445 50.5273C138.252 50.6992 138.014 50.8389 137.731 50.9463C137.452 51.0537 137.12 51.1074 136.737 51.1074ZM141.147 46.3433V51H140.148V45.1885H141.093L141.147 46.3433ZM140.943 47.874L140.481 47.8579C140.485 47.4604 140.536 47.0934 140.637 46.7568C140.737 46.4167 140.886 46.1213 141.083 45.8706C141.279 45.62 141.525 45.4266 141.818 45.2905C142.112 45.1509 142.452 45.0811 142.839 45.0811C143.111 45.0811 143.362 45.1204 143.591 45.1992C143.82 45.2744 144.019 45.3944 144.187 45.5591C144.355 45.7238 144.486 45.9351 144.579 46.1929C144.672 46.4507 144.719 46.7622 144.719 47.1274V51H143.725V47.1758C143.725 46.8714 143.673 46.6279 143.569 46.4453C143.469 46.2627 143.326 46.1302 143.14 46.0479C142.953 45.9619 142.735 45.9189 142.484 45.9189C142.191 45.9189 141.945 45.9709 141.749 46.0747C141.552 46.1785 141.394 46.3218 141.276 46.5044C141.158 46.687 141.072 46.8965 141.018 47.1328C140.968 47.3656 140.943 47.6126 140.943 47.874ZM144.708 47.3262L144.042 47.5303C144.046 47.2116 144.097 46.9054 144.198 46.6118C144.302 46.3182 144.45 46.0568 144.644 45.8276C144.84 45.5985 145.082 45.4176 145.369 45.2852C145.655 45.1491 145.983 45.0811 146.352 45.0811C146.663 45.0811 146.939 45.1222 147.179 45.2046C147.422 45.2869 147.626 45.4141 147.791 45.5859C147.959 45.7542 148.086 45.9709 148.172 46.2358C148.258 46.5008 148.301 46.8159 148.301 47.1812V51H147.302V47.1704C147.302 46.8446 147.25 46.5921 147.146 46.4131C147.046 46.2305 146.903 46.1034 146.717 46.0317C146.534 45.9565 146.316 45.9189 146.062 45.9189C145.843 45.9189 145.65 45.9565 145.481 46.0317C145.313 46.1069 145.172 46.2108 145.057 46.3433C144.943 46.4722 144.855 46.6208 144.794 46.7891C144.737 46.9574 144.708 47.1364 144.708 47.3262ZM149.8 42.75H150.799V49.8721L150.713 51H149.8V42.75ZM154.725 48.0459V48.1587C154.725 48.5812 154.675 48.9733 154.575 49.335C154.474 49.693 154.328 50.0046 154.134 50.2695C153.941 50.5345 153.705 50.7404 153.425 50.8872C153.146 51.034 152.826 51.1074 152.464 51.1074C152.095 51.1074 151.771 51.0448 151.492 50.9194C151.216 50.7905 150.983 50.6061 150.793 50.3662C150.604 50.1263 150.451 49.8363 150.337 49.4961C150.226 49.1559 150.149 48.7728 150.106 48.3467V47.8525C150.149 47.4229 150.226 47.0379 150.337 46.6978C150.451 46.3576 150.604 46.0675 150.793 45.8276C150.983 45.5841 151.216 45.3997 151.492 45.2744C151.767 45.1455 152.088 45.0811 152.453 45.0811C152.818 45.0811 153.142 45.1527 153.425 45.2959C153.708 45.4355 153.944 45.6361 154.134 45.8975C154.328 46.1589 154.474 46.4722 154.575 46.8374C154.675 47.1991 154.725 47.6019 154.725 48.0459ZM153.726 48.1587V48.0459C153.726 47.7559 153.699 47.4837 153.646 47.2295C153.592 46.9717 153.506 46.7461 153.388 46.5527C153.27 46.3558 153.114 46.2018 152.92 46.0908C152.727 45.9762 152.489 45.9189 152.206 45.9189C151.955 45.9189 151.737 45.9619 151.551 46.0479C151.368 46.1338 151.212 46.2502 151.083 46.397C150.955 46.5402 150.849 46.7049 150.767 46.8911C150.688 47.0737 150.629 47.2635 150.589 47.4604V48.7549C150.647 49.0055 150.74 49.2472 150.869 49.48C151.001 49.7091 151.177 49.8971 151.395 50.0439C151.617 50.1908 151.891 50.2642 152.217 50.2642C152.485 50.2642 152.715 50.2104 152.904 50.103C153.098 49.992 153.253 49.8398 153.372 49.6465C153.493 49.4531 153.583 49.2293 153.64 48.9751C153.697 48.7209 153.726 48.4487 153.726 48.1587ZM159.409 50.0063V47.0146C159.409 46.7855 159.362 46.5868 159.269 46.4185C159.18 46.2466 159.043 46.1141 158.861 46.021C158.678 45.9279 158.453 45.8813 158.184 45.8813C157.933 45.8813 157.713 45.9243 157.523 46.0103C157.337 46.0962 157.19 46.209 157.083 46.3486C156.979 46.4883 156.927 46.6387 156.927 46.7998H155.934C155.934 46.5921 155.987 46.3862 156.095 46.1821C156.202 45.978 156.356 45.7936 156.557 45.6289C156.761 45.4606 157.004 45.3281 157.287 45.2314C157.574 45.1312 157.892 45.0811 158.243 45.0811C158.666 45.0811 159.038 45.1527 159.36 45.2959C159.686 45.4391 159.94 45.6558 160.123 45.9458C160.309 46.2323 160.402 46.5921 160.402 47.0254V49.7324C160.402 49.9258 160.418 50.1317 160.451 50.3501C160.486 50.5685 160.538 50.7565 160.606 50.9141V51H159.57C159.52 50.8854 159.48 50.7332 159.452 50.5435C159.423 50.3501 159.409 50.1711 159.409 50.0063ZM159.581 47.4766L159.591 48.1748H158.587C158.304 48.1748 158.052 48.1981 157.83 48.2446C157.608 48.2876 157.421 48.3538 157.271 48.4434C157.121 48.5329 157.006 48.6457 156.927 48.7817C156.848 48.9142 156.809 49.07 156.809 49.249C156.809 49.4316 156.85 49.5981 156.933 49.7485C157.015 49.8989 157.139 50.0189 157.303 50.1084C157.472 50.1943 157.677 50.2373 157.921 50.2373C158.225 50.2373 158.494 50.1729 158.727 50.0439C158.959 49.915 159.144 49.7575 159.28 49.5713C159.419 49.3851 159.495 49.2043 159.505 49.0288L159.93 49.5068C159.905 49.6572 159.837 49.8237 159.726 50.0063C159.615 50.189 159.466 50.3644 159.28 50.5327C159.097 50.6974 158.879 50.8353 158.625 50.9463C158.374 51.0537 158.091 51.1074 157.776 51.1074C157.382 51.1074 157.036 51.0304 156.739 50.8765C156.446 50.7225 156.216 50.5166 156.052 50.2588C155.891 49.9974 155.81 49.7056 155.81 49.3833C155.81 49.0718 155.871 48.7979 155.993 48.5615C156.114 48.3216 156.29 48.1229 156.519 47.9653C156.748 47.8042 157.024 47.6825 157.346 47.6001C157.668 47.5177 158.028 47.4766 158.426 47.4766H159.581ZM163.045 42.75V51H162.046V42.75H163.045ZM165.72 45.1885V51H164.721V45.1885H165.72ZM164.646 43.647C164.646 43.4858 164.694 43.3498 164.791 43.2388C164.891 43.1278 165.038 43.0723 165.231 43.0723C165.421 43.0723 165.566 43.1278 165.666 43.2388C165.77 43.3498 165.822 43.4858 165.822 43.647C165.822 43.8009 165.77 43.9334 165.666 44.0444C165.566 44.1519 165.421 44.2056 165.231 44.2056C165.038 44.2056 164.891 44.1519 164.791 44.0444C164.694 43.9334 164.646 43.8009 164.646 43.647Z" fill="#999999"/>
<defs>
<filter id="filter0_d_3401_127323" x="256" y="4" width="72" height="72" filterUnits="userSpaceOnUse" color-interpolation-filters="sRGB">
<feFlood flood-opacity="0" result="BackgroundImageFix"/>
<feColorMatrix in="SourceAlpha" type="matrix" values="0 0 0 0 0 0 0 0 0 0 0 0 0 0 0 0 0 0 127 0" result="hardAlpha"/>
<feOffset dy="4"/>
<feGaussianBlur stdDeviation="8"/>
<feColorMatrix type="matrix" values="0 0 0 0 0.121495 0 0 0 0 0.135193 0 0 0 0 0.196162 0 0 0 0.15 0"/>
<feBlend mode="normal" in2="BackgroundImageFix" result="effect1_dropShadow_3401_127323"/>
<feBlend mode="normal" in="SourceGraphic" in2="effect1_dropShadow_3401_127323" result="shape"/>
</filter>
<linearGradient id="paint0_linear_3401_127323" x1="322.177" y1="-2.55664" x2="2.1375" y2="49.2138" gradientUnits="userSpaceOnUse">
<stop stop-color="#F5F6FB"/>
<stop offset="1" stop-color="#EBEDF5"/>
</linearGradient>
<linearGradient id="paint1_linear_3401_127323" x1="31.6022" y1="38.8945" x2="28.5034" y2="51.7625" gradientUnits="userSpaceOnUse">
<stop stop-color="#C0C9FD"/>
<stop offset="1" stop-color="#AEB1F0"/>
</linearGradient>
<linearGradient id="paint2_linear_3401_127323" x1="24.4254" y1="20.3143" x2="24.4254" y2="37.6936" gradientUnits="userSpaceOnUse">
<stop stop-color="#BEC8FF"/>
<stop offset="1" stop-color="#9294E6"/>
</linearGradient>
<linearGradient id="paint3_linear_3401_127323" x1="20.0415" y1="40.4352" x2="20.0415" y2="52.849" gradientUnits="userSpaceOnUse">
<stop stop-color="#9BA9F5"/>
<stop offset="1" stop-color="#787BE1"/>
</linearGradient>
<clipPath id="clip0_3401_127323">
<rect width="20" height="20" fill="white" transform="translate(282 26)"/>
</clipPath>
</defs>
</svg>
